<svg xmlns="http://www.w3.org/2000/svg" version="1.1" xmlns:xlink="http://www.w3.org/1999/xlink" xmlns:svgjs="http://svgjs.com/svgjs" viewBox="0 0 40 40" width="40" height="40"><title>Exported from Streamline App (https://app.streamlineicons.com)</title><g transform="matrix(1.6666666666666667,0,0,1.6666666666666667,0,0)"><path d="M 5.25,20.149v1.564c0,0.828,0.672,1.5,1.5,1.5s1.5-0.672,1.5-1.5v-1.5 " stroke="#000000" fill="none" stroke-width="1.5" stroke-linecap="round" stroke-linejoin="round"></path><path d="M 18.75,20.149v1.564 c0,0.828-0.672,1.5-1.5,1.5s-1.5-0.672-1.5-1.5v-1.5 " stroke="#000000" fill="none" stroke-width="1.5" stroke-linecap="round" stroke-linejoin="round"></path><path d="M 3.75,5.213h-1.5c-0.828,0-1.5,0.672-1.5,1.5v3 " stroke="#000000" fill="none" stroke-width="1.5" stroke-linecap="round" stroke-linejoin="round"></path><path d="M 20.25,5.213h1.5 c0.828,0,1.5,0.672,1.5,1.5v3 " stroke="#000000" fill="none" stroke-width="1.5" stroke-linecap="round" stroke-linejoin="round"></path><path d="M 5.75,0.713h12.5c1.105,0,2,0.895,2,2v15.5c0,1.105-0.895,2-2,2H5.75c-1.105,0-2-0.895-2-2v-15.5 C3.75,1.608,4.645,0.713,5.75,0.713z " stroke="#000000" fill="none" stroke-width="1.5" stroke-linecap="round" stroke-linejoin="round"></path><path d="M 20.25,14.213H3.75 " stroke="#000000" fill="none" stroke-width="1.5" stroke-linecap="round" stroke-linejoin="round"></path><path d="M 14.25,17.213h3 " stroke="#000000" fill="none" stroke-width="1.5" stroke-linecap="round" stroke-linejoin="round"></path><path d="M 6.75,17.213h3 " stroke="#000000" fill="none" stroke-width="1.5" stroke-linecap="round" stroke-linejoin="round"></path><path d="M 9.75,3.713h4.5" stroke="#000000" fill="none" stroke-width="1.5" stroke-linecap="round" stroke-linejoin="round"></path></g></svg>