<svg xmlns="http://www.w3.org/2000/svg" version="1.1" xmlns:xlink="http://www.w3.org/1999/xlink" xmlns:svgjs="http://svgjs.com/svgjs" viewBox="0 0 40 40" width="40" height="40"><title>Exported from Streamline App (https://app.streamlineicons.com)</title><g transform="matrix(1.6666666666666667,0,0,1.6666666666666667,0,0)"><path d="M 0.75,17.263h19.37c1.728,0.001,3.13-1.399,3.131-3.127c0-0.874-0.365-1.709-1.008-2.302l-7.45-6.878 c-0.831-0.767-1.921-1.193-3.052-1.193H0.75 " stroke="#000000" fill="none" stroke-width="1.5" stroke-linecap="round" stroke-linejoin="round"></path><path d="M 2.25,17.263c0,1.657,1.343,3,3,3s3-1.343,3-3 " stroke="#000000" fill="none" stroke-width="1.5" stroke-linecap="round" stroke-linejoin="round"></path><path d="M 8.25,17.263c0,1.657,1.343,3,3,3 s3-1.343,3-3 " stroke="#000000" fill="none" stroke-width="1.5" stroke-linecap="round" stroke-linejoin="round"></path><path d="M 21.625,11.263h-7.96c-1.074,0-2.113-0.384-2.929-1.083L9.829,9.4C9.2,8.861,9.127,7.914,9.666,7.285 c0.285-0.333,0.701-0.524,1.139-0.524h5.945L21.625,11.263z " stroke="#000000" fill="none" stroke-width="1.5" stroke-linecap="round" stroke-linejoin="round"></path><path d="M 21.625,11.263c0,0-2.875,1.5-2.875,6 " stroke="#000000" fill="none" stroke-width="1.5" stroke-linecap="round" stroke-linejoin="round"></path><path d="M 8.25,17.263 c-0.919-1.839-2.798-3-4.854-3H0.75" stroke="#000000" fill="none" stroke-width="1.5" stroke-linecap="round" stroke-linejoin="round"></path></g></svg>