<svg xmlns="http://www.w3.org/2000/svg" version="1.1" xmlns:xlink="http://www.w3.org/1999/xlink" xmlns:svgjs="http://svgjs.com/svgjs" viewBox="0 0 40 40" width="40" height="40"><title>Exported from Streamline App (https://app.streamlineicons.com)</title><g transform="matrix(1.6666666666666667,0,0,1.6666666666666667,0,0)"><path d="M 23.25,4.5c0,1.7-2.537,5.678-3.437,7.036c-0.114,0.173-0.347,0.22-0.52,0.105 c-0.042-0.028-0.078-0.063-0.105-0.105C18.287,10.179,15.75,6.2,15.75,4.5c0-2.071,1.679-3.75,3.75-3.75S23.25,2.429,23.25,4.5z " stroke="#000000" fill="none" stroke-width="1.5" stroke-linecap="round" stroke-linejoin="round"></path><path d="M 19.5,4.125c0.207,0,0.375,0.168,0.375,0.375 " stroke="#000000" fill="none" stroke-width="1.5" stroke-linecap="round" stroke-linejoin="round"></path><path d="M 19.125,4.5c0-0.207,0.168-0.375,0.375-0.375 " stroke="#000000" fill="none" stroke-width="1.5" stroke-linecap="round" stroke-linejoin="round"></path><path d="M 19.5,4.875 c-0.207,0-0.375-0.168-0.375-0.375 " stroke="#000000" fill="none" stroke-width="1.5" stroke-linecap="round" stroke-linejoin="round"></path><path d="M 19.875,4.5c0,0.207-0.168,0.375-0.375,0.375 " stroke="#000000" fill="none" stroke-width="1.5" stroke-linecap="round" stroke-linejoin="round"></path><path d="M 5.25,12.375c0.207,0,0.375,0.168,0.375,0.375 " stroke="#000000" fill="none" stroke-width="1.5" stroke-linecap="round" stroke-linejoin="round"></path><path d="M 4.875,12.75c0-0.207,0.168-0.375,0.375-0.375 " stroke="#000000" fill="none" stroke-width="1.5" stroke-linecap="round" stroke-linejoin="round"></path><path d="M 5.25,13.125c-0.207,0-0.375-0.168-0.375-0.375 " stroke="#000000" fill="none" stroke-width="1.5" stroke-linecap="round" stroke-linejoin="round"></path><path d="M 5.625,12.75 c0,0.207-0.168,0.375-0.375,0.375 " stroke="#000000" fill="none" stroke-width="1.5" stroke-linecap="round" stroke-linejoin="round"></path><path d="M 5.25,8.25c2.485,0,4.5,2.015,4.5,4.5c0,1.921-2.688,5.577-3.909,7.138 c-0.255,0.326-0.726,0.384-1.053,0.129c-0.048-0.038-0.092-0.081-0.129-0.129C3.438,18.326,0.75,14.671,0.75,12.75 C0.75,10.265,2.765,8.25,5.25,8.25z " stroke="#000000" fill="none" stroke-width="1.5" stroke-linecap="round" stroke-linejoin="round"></path><path d="M 6.75,23.25L19.5,15" stroke="#000000" fill="none" stroke-width="1.5" stroke-linecap="round" stroke-linejoin="round"></path></g></svg>